# xmcd
#
# Track frame offsets:
#	150
#	13512
#	24987
#	35325
#	48125
#	62147
#	75662
#	88482
#	100347
#	114440
#	128115
#	138495
#
# Disc length: 1989 seconds
#
# Revision: 14
# Processed by: cddbd v1.5.1PL2 Copyright (c) Steve Scherf et al.
# Submitted via: audiograbber 1.83.01
#
DISCID=9607c30c
DTITLE=Various Artist - The Best Of Country [CD 2 of 3)
DYEAR=1999
DGENRE=Country
TTITLE0=Lynn Anderson - Top Of The World
TTITLE1=Don Gibson - Sea Of Heartbreak
TTITLE2=Connie Smith - Once A Day
TTITLE3=David Houston - My Elusive Dreams
TTITLE4=Jeannie Seely - Don't Touch Me
TTITLE5=Johnny Paycheck - She's All I Got
TTITLE6=Stonewall Jackson - Me And You And A Dog Named Boo
TTITLE7=Donna Fargo - Happiest Girl In The Whole USA
TTITLE8=Barbara Fairchild - Teddy Bear Song
TTITLE9=Jimmy Dean - Big Bad John
TTITLE10=Faron Young - Hello Walls
TTITLE11=Ferlin Husky - Wings Of A Dove
EXTD=MillenniumMusicProjectFormat YEAR: 1999
EXTT0=
EXTT1=
EXTT2=
EXTT3=
EXTT4=
EXTT5=
EXTT6=
EXTT7=
EXTT8=
EXTT9=
EXTT10=
EXTT11=
PLAYORDER=
